# xmcd
#
# Track frame offsets:
#	150
#	42396
#	78728
#	116133
#	144849
#	175108
#	203802
#	242436
#	278318
#
# Disc length: 4141 seconds
#
# Revision: 1
# Processed by: cddbd v1.5.2PL0 Copyright (c) Steve Scherf et al.
# Submitted via: audiograbber 1.83.01
#
DISCID=72102b09
DTITLE=Goa Beach - Goa Beach 13 [CD1)
DYEAR=2010
DGENRE=Goa
TTITLE0=Invisible Reality - Alice Dream
TTITLE1=Sideform - Volta
TTITLE2=Ace Ventura - Judo Chop (Rocky Remix)
TTITLE3=Symphonix - Freq Box (Audiomatic Remix)
TTITLE4=Vaishiyas - Touch Down
TTITLE5=Kularis - OSD
TTITLE6=Aqualize - Land Of 2 Suns (Phaxe Remix)
TTITLE7=Motion Drive - Stars
TTITLE8=Human Element - Yin and Yang
EXTD=
EXTT0=
EXTT1=
EXTT2=
EXTT3=
EXTT4=
EXTT5=
EXTT6=
EXTT7=
EXTT8=
PLAYORDER=
